<svg xmlns="http://www.w3.org/2000/svg" width="36.63mm" height="12.29mm" viewBox="0 0 103.84 34.83"><path d="M8.83,11.22,19.55,3.55H32.72v.73s-4.21,3.26-5.8,6.41a1,1,0,0,1-.88.53Z" fill="#fff"/><path d="M95.15,11.22,84.43,3.55H71.26v.73s4.21,3.26,5.8,6.41a1,1,0,0,0,.88.53Z" fill="#fff"/><path d="M95.15,23.67,84.43,31.33H71.26v-.72s4.21-3.27,5.8-6.41a1,1,0,0,1,.88-.53Z" fill="#fff"/><path d="M8.83,23.67l10.72,7.66H32.72v-.72s-4.21-3.27-5.8-6.41a1,1,0,0,0-.88-.53Z" fill="#fff"/><path d="M98.14,13.52H71.76a3,3,0,0,1-3-3V0H61.36V10.53a3,3,0,0,1-3,3h-13a3,3,0,0,1-3-3V0H35V10.53a3,3,0,0,1-3,3H5.7L0,17.61l5.7,3.72H32a3,3,0,0,1,3,3V34.83h7.41V24.32a3,3,0,0,1,3-3h13a3,3,0,0,1,3,3V34.83h7.41V24.32a3,3,0,0,1,3-3H98.14l5.7-3.72Z" fill="#fff"/></svg>